<svg width="14" height="14" viewBox="0 0 14 14" fill="none" xmlns="http://www.w3.org/2000/svg">
<path fill-rule="evenodd" clip-rule="evenodd" d="M6.99967 0.333008C7.2829 0.333008 7.5125 0.562605 7.5125 0.845828V7.8129L10.0559 5.26953C10.2561 5.06927 10.5808 5.06927 10.7811 5.26953C10.9814 5.4698 10.9814 5.7945 10.7811 5.99477L7.36229 9.41358C7.16202 9.61384 6.83732 9.61384 6.63706 9.41358L3.21825 5.99477C3.01798 5.7945 3.01798 5.4698 3.21825 5.26953C3.41852 5.06927 3.74322 5.06927 3.94349 5.26953L6.48685 7.8129V0.845828C6.48685 0.562605 6.71645 0.333008 6.99967 0.333008ZM0.845828 8.53814C1.12905 8.53814 1.35865 8.76773 1.35865 9.05096V11.786C1.35865 12.0127 1.4487 12.2301 1.60898 12.3904C1.76927 12.5507 1.98667 12.6407 2.21335 12.6407H11.786C12.0127 12.6407 12.2301 12.5507 12.3904 12.3904C12.5507 12.2301 12.6407 12.0127 12.6407 11.786V9.05096C12.6407 8.76773 12.8703 8.53814 13.1535 8.53814C13.4367 8.53814 13.6663 8.76773 13.6663 9.05096V11.786C13.6663 12.2847 13.4682 12.763 13.1156 13.1156C12.763 13.4682 12.2847 13.6663 11.786 13.6663H2.21335C1.71465 13.6663 1.23638 13.4682 0.883747 13.1156C0.531115 12.763 0.333008 12.2847 0.333008 11.786V9.05096C0.333008 8.76773 0.562605 8.53814 0.845828 8.53814Z" fill="white"/>
</svg>
