<svg width="64" height="64" viewBox="0 0 64 64" fill="none" xmlns="http://www.w3.org/2000/svg">
<path d="M32 0C14.3644 0 0 14.2933 0 32C0 49.6356 14.3644 64 32 64C49.6356 64 64 49.6356 64 32C64 14.2933 49.6356 0 32 0ZM48.1422 23.6089L27.8756 43.8756C27.5911 44.16 27.2356 44.3022 26.88 44.3022C26.5244 44.3022 26.1689 44.16 25.8844 43.8756L15.9289 33.92C15.36 33.3511 15.36 32.4978 15.9289 31.9289C16.4978 31.36 17.3511 31.36 17.92 31.9289L26.88 40.8889L46.1511 21.6178C46.72 21.0489 47.5733 21.0489 48.1422 21.6178C48.7111 22.1156 48.7111 23.04 48.1422 23.6089Z" fill="#7F2854"/>
</svg>
