<svg width="18" height="18" viewBox="0 0 18 18" fill="none" xmlns="http://www.w3.org/2000/svg">
<path fill-rule="evenodd" clip-rule="evenodd" d="M11.1762 16.7526C11.5998 16.6087 12.0172 16.4256 12.3812 16.1903C12.7299 16.4061 13.0716 16.5917 13.3999 16.7429C13.9207 16.9828 14.4767 17.1685 15.0133 17.2116C15.5315 17.2533 16.2701 17.1731 16.8147 16.5723C17.3593 15.9714 17.3796 15.2143 17.2982 14.6908C17.2139 14.1487 16.9887 13.5981 16.7132 13.0876C16.1554 12.0537 15.2405 10.9079 14.1203 9.85213C13.9387 9.68091 13.7551 9.51537 13.5706 9.3561V3.73731C13.5706 2.91911 13.0815 2.34891 12.6733 2.02084C12.2505 1.68107 11.7187 1.43264 11.1765 1.24836C10.0787 0.875211 8.64417 0.666992 7.11878 0.666992C5.5934 0.666992 4.15886 0.875211 3.06105 1.24836C2.51889 1.43264 1.98706 1.68107 1.56427 2.02084C1.15602 2.34891 0.666992 2.91896 0.666992 3.73716V14.2635C0.666992 15.0819 1.15643 15.6518 1.56444 15.9796C1.98719 16.3193 2.51895 16.5677 3.06111 16.752C4.15891 17.1252 5.59344 17.3337 7.11878 17.3337C8.64386 17.3337 10.0784 17.1257 11.1762 16.7526ZM1.95735 5.71964V7.24587C1.95735 8.18014 4.10924 8.94507 6.82088 8.99757L6.82093 8.9959C5.39967 8.96843 4.13218 8.74567 3.24771 8.40535C2.44466 8.09636 1.95735 7.69047 1.95735 7.24587C1.96755 8.17714 4.1158 8.93837 6.82109 8.99072C6.83477 8.55277 6.95991 8.05921 7.33876 7.64125C7.88338 7.04039 8.62195 6.96024 9.14013 7.00187C9.67678 7.04499 10.2327 7.23065 10.7535 7.47057C11.0762 7.61922 11.4117 7.80103 11.7542 8.01204C11.9071 7.90624 12.0295 7.79443 12.1177 7.67793C12.2222 7.53979 12.2786 7.39504 12.2802 7.24587L12.2802 7.23922V5.7203C11.941 5.92556 11.5612 6.08871 11.1762 6.21951C10.2407 6.53739 9.06063 6.73543 7.7884 6.78703C7.57277 6.79674 7.34957 6.802 7.11878 6.80211V6.80063C7.07456 6.80063 7.03067 6.80042 6.98712 6.80001C5.51103 6.78837 4.12727 6.58135 3.06111 6.21888C2.67619 6.08801 2.2965 5.92483 1.95735 5.71964ZM8.11394 8.96764C8.11414 8.96542 8.11441 8.9632 8.11462 8.96099C8.11459 8.96099 8.11464 8.96098 8.11462 8.96099C8.13096 8.78812 8.18707 8.64388 8.28635 8.53435C8.31613 8.50149 8.34928 8.47233 8.38561 8.44679C8.39772 8.43828 8.41018 8.43017 8.42299 8.42246C9.20411 7.95223 11.28 8.96679 13.2446 10.8184C15.3379 12.7913 16.5121 14.9676 15.8672 15.6791C15.8426 15.7062 15.8157 15.7308 15.7867 15.7529C15.7474 15.7828 15.7041 15.8082 15.6571 15.8292C15.1826 16.0407 14.3243 15.8032 13.3207 15.2266C13.3207 15.2267 13.3207 15.2266 13.3207 15.2266C12.9717 15.0261 12.6052 14.7846 12.2311 14.5067C12.2311 14.5067 12.2311 14.5067 12.2311 14.5067C11.7953 14.1831 11.3493 13.8102 10.909 13.3951L10.8561 13.345C10.856 13.345 10.8561 13.345 10.8561 13.345C10.4758 12.9834 10.1267 12.6154 9.81411 12.2513C9.81408 12.2513 9.81414 12.2512 9.81411 12.2513C9.2091 11.5466 8.74088 10.8566 8.44961 10.2552C8.44958 10.2552 8.44964 10.2552 8.44961 10.2552C8.20414 9.74837 8.08431 9.30424 8.11394 8.96764ZM10.0331 14.3614C9.7921 14.1342 9.56058 13.9029 9.34009 13.6694C8.84697 13.7415 8.32591 13.7894 7.7884 13.8112L7.76885 13.8121C7.55451 13.8205 7.33758 13.8248 7.11878 13.8248L7.05768 13.8247L6.98712 13.8242C5.51103 13.8126 4.12727 13.6055 3.06111 13.2431C2.67619 13.1122 2.2965 12.949 1.95735 12.7438V14.2634C1.95735 15.2316 4.26856 16.0179 7.11878 16.0179C8.76621 16.0179 10.2336 15.7557 11.1786 15.3472C10.794 15.0465 10.4095 14.7161 10.0331 14.3614ZM7.44024 11.1259C7.67265 11.5567 7.96705 12.0069 8.31245 12.4619C7.99407 12.4875 7.66429 12.5031 7.32616 12.5076C7.22869 12.5076 7.12443 12.5076 7.0145 12.5073C5.51499 12.4972 4.17215 12.2699 3.24771 11.9142C2.70963 11.7072 2.3133 11.4566 2.11034 11.1801C2.01042 11.0439 1.95737 10.9014 1.95735 10.7547V9.22842C2.2965 9.43361 2.67619 9.59679 3.06111 9.72766C4.12727 10.0901 5.51103 10.2972 6.98712 10.3088L7.06605 10.3093C7.16903 10.5877 7.29792 10.8622 7.44024 11.1259ZM7.0145 12.5073C7.04918 12.5075 7.08394 12.5076 7.11878 12.5076V12.509C7.02277 12.509 6.92738 12.5081 6.83266 12.5064C6.89479 12.5068 6.95546 12.5071 7.0145 12.5073ZM1.95735 3.73731C1.95737 3.80245 1.96783 3.86676 1.9882 3.93006C2.27076 4.80822 4.46 5.49153 7.11878 5.49153C7.95885 5.49153 8.75204 5.42332 9.45302 5.30229C10.901 5.0523 11.9556 4.57697 12.2172 4.01211C12.2209 4.00415 12.2244 3.99618 12.2278 3.98818C12.2623 3.90625 12.2802 3.82249 12.2802 3.73731C12.2802 2.7684 9.96936 1.98278 7.11878 1.98278C4.2682 1.98278 1.95735 2.7684 1.95735 3.73731Z" fill="#7F2854"/>
</svg>
