<svg width="18" height="18" viewBox="0 0 18 18" fill="none" xmlns="http://www.w3.org/2000/svg">
<path fill-rule="evenodd" clip-rule="evenodd" d="M4.39215 1.29089C4.79194 0.891102 5.33417 0.666504 5.89955 0.666504H12.8763C13.0305 0.666504 13.1784 0.727758 13.2874 0.836791L17.1634 4.71276C17.2724 4.82179 17.3337 4.96967 17.3337 5.12387V15.2014C17.3337 15.7668 17.1091 16.309 16.7093 16.7088C16.3095 17.1086 15.7673 17.3332 15.2019 17.3332H5.89955C5.33417 17.3332 4.79194 17.1086 4.39215 16.7088C3.99237 16.309 3.76777 15.7668 3.76777 15.2014V13.5023H4.93056V15.2014C4.93056 15.4584 5.03265 15.7048 5.21437 15.8866C5.39609 16.0683 5.64256 16.1704 5.89955 16.1704H15.2019C15.4589 16.1704 15.7053 16.0683 15.8871 15.8866C16.0688 15.7048 16.1709 15.4584 16.1709 15.2014V5.70526H12.8763C12.5552 5.70526 12.2949 5.44496 12.2949 5.12387V1.82929H5.89955C5.64256 1.82929 5.39609 1.93138 5.21437 2.11311C5.03265 2.29483 4.93056 2.54129 4.93056 2.79829V6.09286H12.4887C13.452 6.09286 14.2329 6.87376 14.2329 7.83705V11.713C14.2329 12.6763 13.452 13.4572 12.4887 13.4572H2.41118C1.44789 13.4572 0.666992 12.6763 0.666992 11.713V7.83705C0.666992 6.87376 1.44789 6.09286 2.41118 6.09286H3.76777V2.79829C3.76777 2.2329 3.99237 1.69068 4.39215 1.29089ZM13.4577 2.65151L15.3487 4.54247H13.4577V2.65151ZM2.41118 7.25565C2.09008 7.25565 1.82978 7.51595 1.82978 7.83705V11.713C1.82978 12.0341 2.09008 12.2944 2.41118 12.2944H12.4887C12.8098 12.2944 13.0701 12.0341 13.0701 11.713V7.83705C13.0701 7.51595 12.8098 7.25565 12.4887 7.25565H2.41118Z" fill="#7F2854"/>
<path d="M3.96157 11.1704V8.37968H4.98448C5.16769 8.37968 5.32927 8.41955 5.46922 8.49928C5.61172 8.57636 5.72368 8.68533 5.8051 8.82619C5.88653 8.96706 5.92724 9.13051 5.92724 9.31656C5.92724 9.49729 5.88653 9.65676 5.8051 9.79496C5.72368 9.93317 5.61172 10.0408 5.46922 10.1179C5.32927 10.195 5.16769 10.2335 4.98448 10.2335H4.41959V11.1704H3.96157ZM4.94631 8.81822H4.41959V9.8149H4.94631C5.09644 9.8149 5.21731 9.76972 5.30891 9.67935C5.40306 9.58899 5.45014 9.46805 5.45014 9.31656C5.45014 9.16506 5.40306 9.04413 5.30891 8.95377C5.21731 8.8634 5.09644 8.81822 4.94631 8.81822Z" fill="#7F2854"/>
<path d="M6.47791 11.1704V8.37968H7.2909C7.48937 8.37968 7.67131 8.41423 7.83671 8.48334C8.00465 8.55244 8.14842 8.64945 8.26801 8.77437C8.39015 8.89928 8.4843 9.04679 8.55046 9.21689C8.61916 9.38699 8.65351 9.57304 8.65351 9.77503C8.65351 9.97703 8.61916 10.1631 8.55046 10.3332C8.4843 10.5033 8.39015 10.6508 8.26801 10.7757C8.14842 10.9006 8.00465 10.9976 7.83671 11.0667C7.67131 11.1358 7.48937 11.1704 7.2909 11.1704H6.47791ZM7.27181 8.81822H6.93593V10.7318H7.27181C7.45757 10.7318 7.61788 10.6906 7.75274 10.6083C7.8876 10.5232 7.99193 10.4089 8.06572 10.2654C8.13951 10.1219 8.17641 9.95842 8.17641 9.77503C8.17641 9.59164 8.13951 9.42819 8.06572 9.28467C7.99193 9.13849 7.8876 9.0242 7.75274 8.94181C7.61788 8.85942 7.45757 8.81822 7.27181 8.81822Z" fill="#7F2854"/>
<path d="M9.2589 11.1704V8.37968H10.9383V8.81822H9.71692V9.62752H10.7818V10.0461H9.71692V11.1704H9.2589Z" fill="#7F2854"/>
</svg>
