<svg width="14" height="14" viewBox="0 0 14 14" fill="none" xmlns="http://www.w3.org/2000/svg">
<path fill-rule="evenodd" clip-rule="evenodd" d="M7.00032 12.7363C10.1685 12.7363 12.7368 10.168 12.7368 6.99984C12.7368 3.83169 10.1685 1.2634 7.00033 1.2634C3.83218 1.2634 1.26389 3.83169 1.26389 6.99984C1.26389 10.168 3.83218 12.7363 7.00032 12.7363ZM13.667 6.99984C13.667 10.6817 10.6822 13.6665 7.00032 13.6665C3.31843 13.6665 0.333658 10.6817 0.333658 6.99984C0.333658 3.31794 3.31843 0.333168 7.00033 0.333168C10.6822 0.333169 13.667 3.31794 13.667 6.99984ZM7.00033 9.94557C6.74345 9.94557 6.53521 9.73733 6.53521 9.48046L6.53521 6.99984C6.53521 6.74296 6.74345 6.53472 7.00033 6.53472C7.2572 6.53472 7.46544 6.74296 7.46544 6.99984L7.46544 9.48046C7.46544 9.73733 7.2572 9.94557 7.00033 9.94557ZM7.46544 4.51922C7.46544 4.77609 7.2572 4.98433 7.00033 4.98433L6.99412 4.98433C6.73725 4.98433 6.52901 4.77609 6.52901 4.51922C6.52901 4.26234 6.73725 4.0541 6.99412 4.0541L7.00033 4.0541C7.2572 4.0541 7.46544 4.26234 7.46544 4.51922Z" fill="#3B3F4A"/>
</svg>
