<svg width="44" height="44" viewBox="0 0 44 44" fill="none" xmlns="http://www.w3.org/2000/svg">
<circle cx="22" cy="22" r="22" fill="#7F2854" fill-opacity="0.06"/>
<g clip-path="url(#clip0_1_15416)">
<path d="M31.5625 28.6562V33.25C31.5625 34.8438 30.3438 36.0625 28.75 36.0625H13.75C12.1562 36.0625 10.9375 34.8438 10.9375 33.25V10.75C10.9375 9.15625 12.1562 7.9375 13.75 7.9375H28.75C30.3438 7.9375 31.5625 9.15625 31.5625 10.75V16.375" stroke="#7F2854" stroke-width="1.2" stroke-miterlimit="10" stroke-linecap="round"/>
<path d="M14.6875 13.5625H26.875" stroke="#7F2854" stroke-width="1.2" stroke-miterlimit="10" stroke-linecap="round"/>
<path d="M14.6875 17.3125H25" stroke="#7F2854" stroke-width="1.2" stroke-miterlimit="10" stroke-linecap="round"/>
<path d="M14.6875 21.0625H25.9375" stroke="#7F2854" stroke-width="1.2" stroke-miterlimit="10" stroke-linecap="round"/>
<path d="M14.6875 24.8125H23.125" stroke="#7F2854" stroke-width="1.2" stroke-miterlimit="10" stroke-linecap="round"/>
<path d="M39.0625 21.0625L29.6875 30.4375L24.0625 32.3125L25.9375 26.6875L35.3125 17.3125L39.0625 21.0625Z" stroke="#7F2854" stroke-width="1.2" stroke-miterlimit="10" stroke-linecap="round" stroke-linejoin="round"/>
</g>
<defs>
<clipPath id="clip0_1_15416">
<rect width="30" height="30" fill="white" transform="translate(10 7)"/>
</clipPath>
</defs>
</svg>
