<svg width="18" height="18" viewBox="0 0 18 18" fill="none" xmlns="http://www.w3.org/2000/svg">
<path fill-rule="evenodd" clip-rule="evenodd" d="M2.97104 1.82978C2.66836 1.82978 2.37808 1.95002 2.16405 2.16405C1.95002 2.37808 1.82978 2.66836 1.82978 2.97104V15.0296C1.82978 15.3323 1.95002 15.6226 2.16405 15.8366C2.37808 16.0506 2.66836 16.1709 2.97104 16.1709H4.11221V9.86165C4.11221 9.54056 4.37251 9.28026 4.69361 9.28026H13.3069C13.628 9.28026 13.8883 9.54056 13.8883 9.86165V16.1709H15.0296C15.3323 16.1709 15.6226 16.0506 15.8366 15.8366C16.0506 15.6226 16.1709 15.3323 16.1709 15.0296V5.79584L12.2048 1.82978H5.27509V4.97362H11.5843C11.9054 4.97362 12.1657 5.23392 12.1657 5.55502C12.1657 5.87612 11.9054 6.13642 11.5843 6.13642H4.69369C4.3726 6.13642 4.1123 5.87612 4.1123 5.55502V1.82978H2.97104ZM2.97104 0.666992C2.35997 0.666992 1.77393 0.909739 1.34183 1.34183C0.909739 1.77393 0.666992 2.35997 0.666992 2.97104V15.0296C0.666992 15.6407 0.909739 16.2267 1.34183 16.6588C1.77393 17.0909 2.35997 17.3337 2.97104 17.3337H15.0296C15.6407 17.3337 16.2267 17.0909 16.6588 16.6588C17.0909 16.2267 17.3337 15.6407 17.3337 15.0296V5.55502C17.3337 5.40083 17.2724 5.25294 17.1634 5.14391L12.8567 0.837279C12.7477 0.728246 12.5998 0.666992 12.4456 0.666992H2.97104ZM12.7255 16.1709V10.443H5.275V16.1709H12.7255Z" fill="white"/>
</svg>
