<svg width="32" height="32" viewBox="0 0 32 32" fill="none" xmlns="http://www.w3.org/2000/svg">
<path d="M16 32C24.8366 32 32 24.8366 32 16C32 7.16344 24.8366 0 16 0C7.16344 0 0 7.16344 0 16C0 24.8366 7.16344 32 16 32Z" fill="#7F2854"/>
<path d="M7.54899 20.667V11.651H9.11699L11.973 17.489L14.815 11.651H16.383V20.667H14.871V14.129L12.435 19.113H11.511L9.06099 14.129V20.667H7.54899ZM18.0747 20.667L21.5187 11.651H23.2267L26.6427 20.667H25.0747L24.1787 18.343H20.5527L19.6567 20.667H18.0747ZM20.7907 17.167H23.9267L22.3587 13.037L20.7907 17.167Z" fill="white"/>
</svg>
