<svg width="38" height="40" viewBox="0 0 38 40" fill="none" xmlns="http://www.w3.org/2000/svg">
<path d="M15.8823 16.8828H13.647V20.3534H28.2941V18.6475M10.8235 34.2358C13.7058 35.7652 18.7647 38.3534 21.1764 38.3534C23.647 38.2946 28.1764 35.7063 30.1764 34.2358C31.2352 33.471 33.2352 31.1181 34.4705 29.5887C35.0588 28.824 34.9999 27.7652 34.2941 27.1181C33.647 26.5299 32.647 26.5299 31.9411 27.1181C31.9411 27.1181 27.8823 31.8828 25.9411 32.2358M7.11759 35.9416H4.35288C3.47053 35.9416 2.76465 35.2358 2.76465 34.3534V24.1181C2.76465 23.2358 3.47053 22.5299 4.35288 22.5299H7.05877C7.94112 22.5299 8.647 23.2358 8.647 24.1181V34.3534C8.70583 35.2358 7.99994 35.9416 7.11759 35.9416Z" stroke="#7F2854" stroke-width="1.5" stroke-miterlimit="10" stroke-linecap="round" stroke-linejoin="round"/>
<path d="M17.8821 32.2943H22.4704C23.2939 32.2943 23.941 31.6472 23.941 30.8237C23.941 30.0002 23.2939 29.3531 22.4704 29.3531H17.7057C17.7057 29.3531 17.588 25.6472 11.0586 25.1766M23.3527 13.4119C23.1762 13.4119 22.941 13.4708 22.7645 13.4708C19.5292 13.4708 16.8821 10.8237 16.8821 7.58841C16.8821 4.35311 19.5292 1.70605 22.7645 1.70605C25.9998 1.70605 28.6468 4.35311 28.6468 7.58841C28.6468 8.88252 28.1762 10.1178 27.4704 11.1178" stroke="#7F2854" stroke-width="1.5" stroke-miterlimit="10" stroke-linecap="round" stroke-linejoin="round"/>
<path d="M23.5882 8.88212C23.5882 8.64683 23.5294 8.52918 23.4118 8.35271C23.2941 8.23506 23.0588 8.11742 22.7647 7.99977C22.4706 7.88212 22.2353 7.76448 22.0588 7.70565C21.4706 7.41154 21.1765 6.94095 21.1765 6.35271C21.1765 5.88212 21.2941 5.58801 21.5294 5.29389C21.7647 4.99977 22.1176 4.88212 22.5294 4.8233V4.05859H23.1176V4.88212C23.5294 4.94095 23.8824 5.11742 24.1176 5.41153C24.3529 5.70565 24.4706 6.11742 24.4706 6.58801H23.5882C23.5882 6.29389 23.5294 6.05859 23.3529 5.88212C23.1765 5.70565 23 5.58801 22.7647 5.58801C22.5294 5.58801 22.3529 5.64683 22.2353 5.76448C22.1176 5.88212 22.0588 6.05859 22.0588 6.29389C22.0588 6.52918 22.1176 6.70565 22.2353 6.8233C22.3529 6.94095 22.5882 7.05859 22.8824 7.17624C23.1765 7.29389 23.4706 7.41154 23.6471 7.47036C23.8235 7.58801 24 7.70565 24.1176 7.8233C24.2353 7.94095 24.3529 8.11742 24.4118 8.23506C24.4706 8.35271 24.5294 8.58801 24.5294 8.8233C24.5294 9.23507 24.4118 9.58801 24.1765 9.8233C23.9412 10.0586 23.5882 10.2351 23.1176 10.2939V10.9998H22.5294V10.2939C22.0588 10.2351 21.6471 10.0586 21.4118 9.76448C21.1765 9.47036 21 9.05859 21 8.58801H21.8824C21.8824 8.88212 21.9412 9.11742 22.1176 9.29389C22.2941 9.47036 22.4706 9.52918 22.7647 9.52918C23.0588 9.52918 23.2353 9.47036 23.4118 9.35271C23.5294 9.29389 23.5882 9.11742 23.5882 8.88212Z" fill="#7F2854"/>
<path d="M15.8828 22.1768V23.8239H30.5299V20.3533H15.8828M15.8828 13.4121H30.5299V16.8827H15.8828V13.4121Z" stroke="#7F2854" stroke-width="1.5" stroke-miterlimit="10" stroke-linecap="round" stroke-linejoin="round"/>
</svg>
