<svg width="259" height="26" viewBox="0 0 259 26" fill="none" xmlns="http://www.w3.org/2000/svg">
<path fill-rule="evenodd" clip-rule="evenodd" d="M11.5691 24.1125L11.5698 24.1115C11.5674 24.1104 11.5653 24.1092 11.563 24.1078C11.5562 24.1033 11.5487 24.0996 11.5417 24.0956C10.9199 23.7528 9.88744 22.7442 9.82172 22.6941C9.82102 22.6932 9.82032 22.6925 9.81962 22.6918C9.77121 22.6553 9.71859 22.6233 9.65896 22.6004C9.31496 22.468 8.92466 22.6331 8.78903 22.9689C8.71419 23.1539 8.73454 23.3517 8.82387 23.5147L8.83229 23.5468C9.66364 24.6421 10.9833 25.1868 10.9833 25.1868C11.3058 25.3107 11.6713 25.1559 11.7985 24.8414C11.9077 24.5713 11.8046 24.2705 11.5691 24.1125Z" fill="#E82227"/>
<path fill-rule="evenodd" clip-rule="evenodd" d="M6.37871 3.7819C10.3507 1.68588 14.325 1.85308 18.297 3.7826C18.7385 3.99705 19.1913 4.14578 19.4523 3.59084C19.681 3.10466 19.3398 2.83947 18.9242 2.62924C16.8172 1.56334 14.5858 0.994374 12.2068 1.00045C9.91457 0.981746 7.77575 1.54089 5.77513 2.62176C5.35209 2.85 4.95337 3.12548 5.27095 3.65773C5.5518 4.12847 5.97063 3.99705 6.37871 3.7819Z" fill="#1D1D1A"/>
<path fill-rule="evenodd" clip-rule="evenodd" d="M5.09061 21.2578C4.72089 21.2578 4.41992 21.5513 4.41992 21.9121C4.41992 22.2727 4.72089 22.5662 5.09061 22.5662C5.46057 22.5662 5.7613 22.2727 5.7613 21.9121C5.7613 21.5513 5.46057 21.2578 5.09061 21.2578Z" fill="#1D1D1A"/>
<path fill-rule="evenodd" clip-rule="evenodd" d="M13.8206 10.2596C13.8206 9.89895 13.5199 9.60547 13.1499 9.60547C12.7802 9.60547 12.4795 9.89895 12.4795 10.2596C12.4795 10.6202 12.7802 10.9136 13.1499 10.9136C13.5199 10.9136 13.8206 10.6202 13.8206 10.2596Z" fill="#1D1D1A"/>
<path fill-rule="evenodd" clip-rule="evenodd" d="M21.0271 19.7656C20.6572 19.7656 20.3564 20.0591 20.3564 20.4197C20.3564 20.7803 20.6572 21.0738 21.0271 21.0738C21.3969 21.0738 21.6976 20.7803 21.6976 20.4197C21.6976 20.0591 21.3969 19.7656 21.0271 19.7656Z" fill="#1D1D1A"/>
<path fill-rule="evenodd" clip-rule="evenodd" d="M15.981 17.1133C15.611 17.1133 15.3105 17.4068 15.3105 17.7674C15.3105 18.128 15.611 18.4215 15.981 18.4215C16.3507 18.4215 16.6517 18.128 16.6517 17.7674C16.6517 17.4068 16.3507 17.1133 15.981 17.1133Z" fill="#1D1D1A"/>
<path fill-rule="evenodd" clip-rule="evenodd" d="M15.981 17.1133C15.611 17.1133 15.3105 17.4068 15.3105 17.7674C15.3105 18.128 15.611 18.4215 15.981 18.4215C16.3507 18.4215 16.6517 18.128 16.6517 17.7674C16.6517 17.4068 16.3507 17.1133 15.981 17.1133Z" fill="#1D1D1A"/>
<path fill-rule="evenodd" clip-rule="evenodd" d="M24.0613 12.8086C23.6914 12.8086 23.3906 13.1021 23.3906 13.4627C23.3906 13.8235 23.6914 14.1168 24.0613 14.1168C24.431 14.1168 24.732 13.8235 24.732 13.4627C24.732 13.1021 24.431 12.8086 24.0613 12.8086Z" fill="#1D1D1A"/>
<path fill-rule="evenodd" clip-rule="evenodd" d="M23.7376 11.3221C23.7376 10.9615 23.4369 10.668 23.0669 10.668C22.6972 10.668 22.3965 10.9615 22.3965 11.3221C22.3965 11.6829 22.6972 11.9761 23.0669 11.9761C23.4369 11.9761 23.7376 11.6829 23.7376 11.3221Z" fill="#1D1D1A"/>
<path fill-rule="evenodd" clip-rule="evenodd" d="M3.7371 5.65974C4.10682 5.65974 4.40779 5.36648 4.40779 5.00565C4.40779 4.64505 4.10682 4.35156 3.7371 4.35156C3.36737 4.35156 3.06641 4.64505 3.06641 5.00565C3.06641 5.36648 3.36737 5.65974 3.7371 5.65974Z" fill="#1D1D1A"/>
<path fill-rule="evenodd" clip-rule="evenodd" d="M1.25462 11.4062C1.00416 11.4062 0.787851 11.5426 0.672795 11.7414L0.670457 11.7402C0.667884 11.7467 0.665312 11.7531 0.662739 11.7596C0.63912 11.8033 0.620178 11.8494 0.607316 11.8983C0.0357795 13.3786 0 14.915 0 14.915C0 15.2758 0.300735 15.5691 0.670457 15.5691C0.987327 15.5691 1.25205 15.353 1.32174 15.0644L1.32291 15.0642C1.32291 15.0628 1.32291 15.0616 1.32314 15.0604C1.3339 15.0137 1.34115 14.9653 1.34115 14.915C1.34115 14.8923 1.33647 14.8705 1.33413 14.8483C1.42346 13.379 1.87082 12.318 1.87082 12.318C1.90567 12.239 1.92531 12.1518 1.92531 12.0603C1.92531 11.6997 1.62434 11.4062 1.25462 11.4062Z" fill="#1D1D1A"/>
<path fill-rule="evenodd" clip-rule="evenodd" d="M8.98193 7.34747C3.47141 9.49307 2.04959 14.6266 3.54695 19.6465C3.55513 19.6905 3.56776 19.7328 3.58437 19.7732C3.68422 20.0122 3.92439 20.1816 4.20525 20.1816C4.24547 20.1816 4.28452 20.1766 4.32287 20.1701C4.40402 20.1561 4.47955 20.1266 4.54784 20.0868C4.74334 19.9725 4.8757 19.7658 4.8757 19.5275C4.8757 19.4849 4.87079 19.4433 4.86284 19.4026C4.8605 19.3916 4.85676 19.3815 4.85395 19.3706C4.72159 18.8968 4.59461 18.4211 4.49803 17.9403C3.42675 12.6122 7.01663 8.04201 12.2844 8.04201C17.1228 8.04201 20.3764 10.99 20.3764 15.425C20.3764 17.1896 19.6557 18.0689 18.377 18.0427C18.3749 18.0427 18.373 18.042 18.3709 18.042L18.3657 18.0425C18.341 18.042 18.3159 18.0434 18.2914 18.042C18.2883 18.0448 18.2865 18.0479 18.2834 18.0507C17.9553 18.093 17.7004 18.365 17.7004 18.6961C17.7004 18.9973 17.9107 19.2482 18.1948 19.3243C18.2032 19.3278 18.2123 19.331 18.2282 19.3352L18.2322 19.3359C18.2376 19.3369 18.2434 19.3373 18.2488 19.3383C18.2629 19.3402 18.2797 19.3418 18.3005 19.3434C18.3239 19.3455 18.3468 19.3502 18.3709 19.3502C18.3795 19.3502 18.3875 19.3481 18.3961 19.3479C18.5315 19.3518 18.6929 19.3502 18.6929 19.3502C20.7929 19.1879 21.5476 17.4813 21.5476 15.016C21.5476 8.86985 14.836 5.0681 8.98193 7.34747Z" fill="#1D1D1A"/>
<path fill-rule="evenodd" clip-rule="evenodd" d="M9.29393 5.59198C9.32185 5.5874 9.34685 5.57698 9.37393 5.57031C9.34602 5.5774 9.31893 5.5849 9.29102 5.5924L9.29393 5.59198Z" fill="#00AEEF"/>
<path fill-rule="evenodd" clip-rule="evenodd" d="M9.825 4.82938C9.8229 4.81863 9.81916 4.80857 9.81658 4.79805C9.74503 4.51766 9.48709 4.30859 9.17793 4.30859C9.13748 4.30859 9.09819 4.3135 9.05984 4.32029C9.00932 4.33455 8.96068 4.34999 8.91111 4.36472C7.83468 4.6858 6.94253 5.12357 6.02723 5.65933C4.76583 6.39784 3.76166 7.23129 2.70207 8.56121C2.55077 8.7511 2.28067 9.00062 2.10224 9.26862C2.01244 9.36683 1.95398 9.49124 1.93808 9.62875C1.90113 9.80788 1.94346 9.98701 2.11978 10.1552C2.12609 10.1617 2.13311 10.1675 2.13966 10.1739C2.16328 10.1951 2.18877 10.2162 2.21706 10.2372C2.2201 10.2396 2.22314 10.2412 2.22618 10.2435C2.9392 10.7578 3.39217 9.78613 3.70998 9.38507C5.38133 7.27689 6.99632 6.17801 9.29182 5.58473C9.30749 5.58075 9.32269 5.57631 9.33859 5.57234C9.40103 5.55667 9.46089 5.53422 9.51515 5.50265C9.70761 5.39016 9.83786 5.18695 9.83786 4.95239C9.83786 4.9103 9.83295 4.86937 9.825 4.82938Z" fill="#1D1D1A"/>
<path fill-rule="evenodd" clip-rule="evenodd" d="M22.1989 8.80401C22.1671 8.74695 22.129 8.69386 22.0818 8.64873C19.6408 5.53498 16.3793 4.02873 12.4707 3.94922C12.2974 3.95156 11.8594 3.94922 11.8084 3.94922C11.4387 3.94922 11.1377 4.2427 11.1377 4.60331C11.1377 4.96414 11.4387 5.25739 11.8084 5.25739C15.2481 5.07873 18.7131 6.46828 21.0556 9.46979C21.0631 9.48125 21.0729 9.49177 21.0811 9.50253C21.2032 9.66131 21.3957 9.76561 21.6143 9.76561C21.9831 9.76561 22.2827 9.47306 22.2827 9.11363C22.2827 9.00114 22.2506 8.89638 22.1989 8.80401Z" fill="#1D1D1A"/>
<path fill-rule="evenodd" clip-rule="evenodd" d="M18.7897 15.426C18.7794 15.22 18.7504 15.0137 18.7125 14.8105C18.3966 13.1174 17.419 11.5859 16.1109 10.6367C16.2227 10.7265 16.3054 10.85 16.3415 10.9915C16.344 11.0027 16.3482 11.013 16.3506 11.0242C16.3585 11.0654 16.3634 11.1079 16.3634 11.1514C16.3634 11.3942 16.2287 11.6046 16.0297 11.7209C15.96 11.7616 15.8831 11.7915 15.8003 11.8057C15.7615 11.8125 15.7217 11.8174 15.6808 11.8174C15.5447 11.8174 15.4189 11.7777 15.3125 11.7106C16.3857 12.5969 17.2925 14.0655 17.4527 15.5446C17.5042 16.0191 17.553 16.5039 18.1566 16.4844C18.8418 16.4627 18.8137 15.912 18.7897 15.426Z" fill="#1D1D1A"/>
<path fill-rule="evenodd" clip-rule="evenodd" d="M15.8006 11.8047C15.8834 11.7902 15.9601 11.7605 16.0298 11.7198C16.229 11.6036 16.3637 11.3931 16.3637 11.1504C16.3637 11.1069 16.3588 11.0643 16.3507 11.0229C16.3483 11.0119 16.3443 11.0017 16.3418 10.9904C16.3055 10.849 16.223 10.7255 16.111 10.6357C16.1023 10.6294 16.0936 10.6228 16.085 10.6167C15.972 10.5342 15.8329 10.4844 15.6809 10.4844C15.3044 10.4844 14.998 10.783 14.998 11.1504C14.998 11.192 15.003 11.2322 15.0107 11.2715C15.0191 11.3162 15.0317 11.3592 15.0488 11.4004C15.0825 11.4808 15.1327 11.5526 15.1938 11.6139C15.2338 11.6448 15.2733 11.6768 15.3126 11.7095C15.419 11.7766 15.545 11.8164 15.6809 11.8164C15.7221 11.8164 15.7616 11.8115 15.8006 11.8047Z" fill="#1D1D1A"/>
<path fill-rule="evenodd" clip-rule="evenodd" d="M15.406 11.7876C15.3356 11.7293 15.2652 11.6722 15.1943 11.6172C15.2585 11.6814 15.3285 11.7389 15.406 11.7876Z" fill="#00AEEF"/>
<path fill-rule="evenodd" clip-rule="evenodd" d="M13.0035 12.4661C13.0014 12.4657 13.0001 12.4653 12.998 12.4648C13.0001 12.4657 13.0022 12.4661 13.0043 12.4669L13.0035 12.4661Z" fill="#1D1D1A"/>
<path fill-rule="evenodd" clip-rule="evenodd" d="M15.7028 23.1782C15.3326 23.0477 14.9474 22.9455 14.5962 22.7769C11.7631 21.4164 10.2388 19.1903 10.0927 16.1142C10.0274 14.7389 10.9392 13.7738 12.2137 13.7247L12.2322 13.7184C12.3096 13.706 12.3825 13.6805 12.449 13.6447C12.654 13.5346 12.7948 13.3243 12.7948 13.0804C12.7948 12.8382 12.6559 12.6291 12.4532 12.5182C12.3636 12.4696 12.2628 12.4397 12.1543 12.4359C12.1466 12.4357 12.1393 12.4336 12.1316 12.4336C12.1166 12.4336 12.1024 12.4371 12.0877 12.438C10.3819 12.5451 9.00827 13.7673 8.78424 15.4269C8.28006 19.1653 11.5294 23.6433 15.2877 24.3935C15.7159 24.4791 16.1031 24.4562 16.2348 23.9752C16.3506 23.5528 16.0877 23.3138 15.7028 23.1782Z" fill="#1D1D1A"/>
<path fill-rule="evenodd" clip-rule="evenodd" d="M15.7224 15.2246C15.7161 15.1733 15.703 15.1247 15.6854 15.0777C15.5613 14.5999 15.3686 14.0406 15.0922 13.6615C15.0716 13.629 15.048 13.5986 15.022 13.5701C15.0176 13.5647 15.0136 13.5584 15.0091 13.5532L15.0054 13.5504C14.8833 13.426 14.7124 13.3477 14.5223 13.3477C14.1523 13.3477 13.8516 13.6411 13.8516 14.0017C13.8516 14.0705 13.8654 14.1353 13.8857 14.1975L13.8831 14.2001C13.8831 14.2001 13.8871 14.2085 13.8939 14.2237C13.9023 14.2464 13.9121 14.2681 13.9229 14.2894C13.9926 14.4507 14.1465 14.8305 14.3275 15.4177C14.3373 15.4781 14.3543 15.5358 14.3794 15.5896C14.4902 15.8291 14.7358 15.9965 15.022 15.9965C15.1452 15.9965 15.2591 15.9631 15.3599 15.9088C15.5783 15.7917 15.7282 15.5676 15.7282 15.3076C15.7282 15.2795 15.7259 15.2519 15.7224 15.2246Z" fill="#1D1D1A"/>
<path fill-rule="evenodd" clip-rule="evenodd" d="M8.51758 20.8867C8.54174 20.9271 8.56424 20.968 8.58841 21.0084C8.56716 20.9663 8.54383 20.9259 8.51758 20.8867Z" fill="#E82227"/>
<path fill-rule="evenodd" clip-rule="evenodd" d="M7.3418 21.5078C7.37305 21.5766 7.41096 21.6416 7.45513 21.7024C7.43013 21.6595 7.40555 21.6161 7.38305 21.5766C7.37971 21.5707 7.36346 21.5441 7.3418 21.5078Z" fill="#E82227"/>
<path fill-rule="evenodd" clip-rule="evenodd" d="M10.7134 9.78906C10.6061 9.78906 10.4113 9.85992 10.4113 9.85992C7.64529 10.67 5.7782 13.1626 5.80697 16.1856C5.86286 18.0766 6.69351 20.3761 7.24376 21.3377C7.26925 21.3889 7.31368 21.4637 7.34104 21.5091C7.3532 21.5294 7.36232 21.5442 7.36443 21.5474C7.37682 21.5699 7.39062 21.594 7.40465 21.6183C7.52626 21.7869 7.7269 21.8982 7.95397 21.8982C8.07113 21.8982 8.17987 21.8662 8.27599 21.8145C8.48412 21.7029 8.62677 21.4897 8.62677 21.2418C8.62677 21.1386 8.60081 21.0425 8.55685 20.9558C8.54328 20.9331 8.53065 20.9102 8.51709 20.8875C7.58238 19.3286 7.10813 17.6082 7.16846 15.7023C7.23862 13.4837 8.81946 11.6882 10.8418 11.0846C10.882 11.0771 10.9206 11.0652 10.958 11.0507C11.0179 11.0343 11.1952 10.9228 11.2122 10.876C11.3179 10.7605 11.3839 10.6099 11.3839 10.4431C11.3839 10.0825 11.0832 9.78906 10.7134 9.78906Z" fill="#00AC75"/>
<path fill-rule="evenodd" clip-rule="evenodd" d="M18.8805 20.8156C18.7893 20.7658 18.6868 20.7354 18.5762 20.7319C18.5383 20.7357 18.5004 20.738 18.4628 20.7413C15.589 20.9852 13.2542 19.1029 13.0051 16.3006C12.9621 15.8145 12.9778 15.2464 12.2942 15.296C11.664 15.3421 11.6586 15.9606 11.6911 16.4503C11.9009 19.615 14.6281 22.0614 17.9343 22.096C18.1492 22.096 18.3669 22.0752 18.5846 22.0452C18.6274 22.0394 18.6702 22.0335 18.7133 22.0268C18.7705 22.0123 18.8253 21.991 18.8762 21.9634C19.0853 21.8514 19.2287 21.6369 19.2287 21.3881C19.2287 21.1414 19.0872 20.9283 18.8805 20.8156Z" fill="#1D1D1A"/>
<path d="M36.2812 18.334C32.4868 18.334 30.1304 15.6436 30.1304 11.3203V11.3018C30.1304 6.95996 32.4775 4.27881 36.272 4.27881C39.3149 4.27881 41.625 6.2085 41.9404 8.94531V9.01953H39.5933L39.584 8.98242C39.2407 7.396 37.9604 6.34766 36.272 6.34766C33.999 6.34766 32.5796 8.24951 32.5796 11.2925V11.311C32.5796 14.3633 33.999 16.2651 36.2812 16.2651C37.979 16.2651 39.2407 15.3188 39.584 13.8438L39.5933 13.7974H41.9404V13.8623C41.5879 16.5435 39.3706 18.334 36.2812 18.334ZM48.75 18.2041C45.707 18.2041 43.8701 16.2188 43.8701 12.9346V12.916C43.8701 9.65967 45.7349 7.66504 48.75 7.66504C51.7744 7.66504 53.6299 9.65039 53.6299 12.916V12.9346C53.6299 16.2188 51.7837 18.2041 48.75 18.2041ZM48.75 16.3301C50.355 16.3301 51.2642 15.0776 51.2642 12.9438V12.9253C51.2642 10.7915 50.3457 9.52979 48.75 9.52979C47.145 9.52979 46.2266 10.7915 46.2266 12.9253V12.9438C46.2266 15.0776 47.145 16.3301 48.75 16.3301ZM55.9492 18V7.85986H58.2593V9.40918H58.417C58.8994 8.32373 59.8735 7.66504 61.3394 7.66504C63.603 7.66504 64.8369 9.02881 64.8369 11.4409V18H62.5269V11.979C62.5269 10.4019 61.8867 9.604 60.4858 9.604C59.1128 9.604 58.2593 10.5688 58.2593 12.0903V18H55.9492ZM71.5537 18.0464C69.2251 18.0464 68.2695 17.2671 68.2695 15.3096V9.65039H66.6924V7.85986H68.2695V5.37354H70.6167V7.85986H72.7598V9.65039H70.6167V14.7622C70.6167 15.7734 71.0156 16.2002 71.9805 16.2002C72.3052 16.2002 72.4814 16.1909 72.7598 16.1631V17.9443C72.4258 18.0093 71.999 18.0464 71.5537 18.0464ZM76.248 6.16211C75.4873 6.16211 74.8657 5.55908 74.8657 4.79834C74.8657 4.04688 75.4873 3.43457 76.248 3.43457C76.9995 3.43457 77.6211 4.04688 77.6211 4.79834C77.6211 5.55908 76.9995 6.16211 76.248 6.16211ZM75.0884 18V7.85986H77.3984V18H75.0884ZM80.2373 18V7.85986H82.5474V9.40918H82.7051C83.1875 8.32373 84.1616 7.66504 85.6274 7.66504C87.8911 7.66504 89.125 9.02881 89.125 11.4409V18H86.8149V11.979C86.8149 10.4019 86.1748 9.604 84.7739 9.604C83.4009 9.604 82.5474 10.5688 82.5474 12.0903V18H80.2373ZM95.2109 18.2041C92.9287 18.2041 91.7598 16.8311 91.7598 14.4189V7.85986H94.0698V13.8901C94.0698 15.458 94.6543 16.2559 96.0459 16.2559C97.5396 16.2559 98.3374 15.291 98.3374 13.7695V7.85986H100.647V18H98.3374V16.46H98.1797C97.7065 17.5454 96.6768 18.2041 95.2109 18.2041ZM107.81 18.2041C104.794 18.2041 102.967 16.1816 102.967 12.9531V12.9438C102.967 9.75244 104.813 7.66504 107.698 7.66504C110.583 7.66504 112.365 9.6875 112.365 12.749V13.5098H105.277C105.305 15.3281 106.288 16.3857 107.856 16.3857C109.108 16.3857 109.823 15.7549 110.045 15.291L110.073 15.2261H112.272L112.244 15.3096C111.919 16.6177 110.565 18.2041 107.81 18.2041ZM107.726 9.47412C106.437 9.47412 105.472 10.3462 105.295 11.9604H110.11C109.953 10.2998 109.016 9.47412 107.726 9.47412ZM121.67 18L118.924 7.85986H121.243L122.932 15.4766H123.089L125.038 7.85986H127.236L129.203 15.4766H129.361L131.04 7.85986H133.332L130.585 18H128.164L126.188 10.6523H126.03L124.063 18H121.67ZM136.532 6.16211C135.771 6.16211 135.15 5.55908 135.15 4.79834C135.15 4.04688 135.771 3.43457 136.532 3.43457C137.284 3.43457 137.905 4.04688 137.905 4.79834C137.905 5.55908 137.284 6.16211 136.532 6.16211ZM135.373 18V7.85986H137.683V18H135.373ZM144.511 18.0464C142.182 18.0464 141.227 17.2671 141.227 15.3096V9.65039H139.649V7.85986H141.227V5.37354H143.574V7.85986H145.717V9.65039H143.574V14.7622C143.574 15.7734 143.973 16.2002 144.938 16.2002C145.262 16.2002 145.438 16.1909 145.717 16.1631V17.9443C145.383 18.0093 144.956 18.0464 144.511 18.0464ZM148.11 18V3.93555H150.42V9.40918H150.578C151.061 8.32373 152.035 7.66504 153.5 7.66504C155.764 7.66504 156.998 9.02881 156.998 11.4409V18H154.688V11.979C154.688 10.4019 154.048 9.604 152.647 9.604C151.274 9.604 150.42 10.5688 150.42 12.0903V18H148.11ZM170.524 18.334C167.138 18.334 165.023 16.3394 165.023 13.3892V4.61279H167.417V13.1943C167.417 15.0405 168.539 16.2651 170.534 16.2651C172.519 16.2651 173.632 15.0405 173.632 13.1943V4.61279H176.026V13.3892C176.026 16.3394 173.929 18.334 170.524 18.334ZM178.011 18L182.761 4.61279H185.461L190.211 18H187.706L186.583 14.5396H181.629L180.516 18H178.011ZM184.032 7.09912L182.232 12.6934H185.99L184.19 7.09912H184.032ZM192.512 18V4.61279H201.177V6.62598H194.905V10.2534H200.833V12.1553H194.905V15.9868H201.177V18H192.512ZM209.211 18V4.61279H214.555C217.273 4.61279 219.11 6.40332 219.11 9.08447V9.10303C219.11 11.7749 217.273 13.5747 214.555 13.5747H211.604V18H209.211ZM213.97 6.57031H211.604V11.645H213.97C215.687 11.645 216.688 10.7173 216.688 9.1123V9.09375C216.688 7.48877 215.687 6.57031 213.97 6.57031ZM219.871 18L224.621 4.61279H227.32L232.07 18H229.565L228.443 14.5396H223.489L222.375 18H219.871ZM225.892 7.09912L224.092 12.6934H227.849L226.049 7.09912H225.892ZM239.019 18.334C235.911 18.334 233.935 16.8032 233.768 14.4932L233.759 14.3633H236.078L236.087 14.4561C236.199 15.5786 237.396 16.3208 239.093 16.3208C240.708 16.3208 241.839 15.5229 241.839 14.3726V14.3633C241.839 13.3984 241.144 12.814 239.418 12.4429L237.98 12.146C235.243 11.5708 234.056 10.2905 234.056 8.2959V8.28662C234.056 5.89307 236.115 4.27881 239.01 4.27881C241.979 4.27881 243.825 5.90234 243.992 8.05469L244.001 8.17529H241.709L241.691 8.06396C241.524 7.0249 240.531 6.28271 239 6.29199C237.516 6.29199 236.458 6.98779 236.458 8.12891V8.13818C236.458 9.08447 237.136 9.67822 238.806 10.0308L240.244 10.3369C243.064 10.9307 244.242 12.0625 244.242 14.085V14.0942C244.242 16.7012 242.229 18.334 239.019 18.334ZM251.581 18.334C248.473 18.334 246.497 16.8032 246.33 14.4932L246.32 14.3633H248.64L248.649 14.4561C248.76 15.5786 249.957 16.3208 251.655 16.3208C253.269 16.3208 254.401 15.5229 254.401 14.3726V14.3633C254.401 13.3984 253.705 12.814 251.979 12.4429L250.542 12.146C247.805 11.5708 246.617 10.2905 246.617 8.2959V8.28662C246.617 5.89307 248.677 4.27881 251.571 4.27881C254.54 4.27881 256.386 5.90234 256.553 8.05469L256.562 8.17529H254.271L254.252 8.06396C254.085 7.0249 253.093 6.28271 251.562 6.29199C250.078 6.29199 249.02 6.98779 249.02 8.12891V8.13818C249.02 9.08447 249.697 9.67822 251.367 10.0308L252.805 10.3369C255.625 10.9307 256.804 12.0625 256.804 14.085V14.0942C256.804 16.7012 254.791 18.334 251.581 18.334Z" fill="black"/>
</svg>
