<svg width="163" height="21" viewBox="0 0 163 21" fill="none" xmlns="http://www.w3.org/2000/svg">
<path d="M31.784 15.07C31.1213 15.07 30.5473 14.986 30.062 14.818C29.586 14.6407 29.2173 14.3607 28.956 13.978C28.6947 13.586 28.5453 13.0633 28.508 12.41L28.256 6.768H30.23L30.468 11.724C30.4867 12.1067 30.5473 12.4007 30.65 12.606C30.762 12.802 30.9207 12.9373 31.126 13.012C31.3313 13.0773 31.5973 13.11 31.924 13.11C32.2787 13.11 32.5307 13.2033 32.68 13.39C32.8293 13.5673 32.904 13.7913 32.904 14.062C32.904 14.3513 32.806 14.594 32.61 14.79C32.4233 14.9767 32.148 15.07 31.784 15.07ZM29.222 13.768C28.5967 13.908 27.9947 13.9733 27.416 13.964C26.8373 13.9453 26.3193 13.8427 25.862 13.656C25.4047 13.46 25.0407 13.18 24.77 12.816C24.5087 12.452 24.378 11.99 24.378 11.43C24.378 10.9353 24.4853 10.4873 24.7 10.086C24.924 9.67533 25.232 9.316 25.624 9.008C26.0253 8.7 26.492 8.43867 27.024 8.224C27.556 8.00933 28.1347 7.846 28.76 7.734L28.956 9.722C28.5547 9.74067 28.1907 9.79667 27.864 9.89C27.5467 9.974 27.2713 10.086 27.038 10.226C26.814 10.366 26.6413 10.5247 26.52 10.702C26.3987 10.87 26.338 11.052 26.338 11.248C26.338 11.4067 26.394 11.5373 26.506 11.64C26.618 11.7427 26.7673 11.8267 26.954 11.892C27.1407 11.948 27.3553 11.9807 27.598 11.99C27.8407 11.9993 28.088 11.9853 28.34 11.948C28.6013 11.9107 28.858 11.85 29.11 11.766L29.222 13.768ZM29.264 5.326C28.9933 5.326 28.76 5.23267 28.564 5.046C28.3773 4.85 28.284 4.62133 28.284 4.36C28.284 4.08933 28.3773 3.856 28.564 3.66C28.76 3.464 28.9933 3.366 29.264 3.366C29.5253 3.366 29.7493 3.464 29.936 3.66C30.1227 3.856 30.216 4.08933 30.216 4.36C30.216 4.62133 30.1227 4.85 29.936 5.046C29.7493 5.23267 29.5253 5.326 29.264 5.326ZM26.842 5.312C26.5713 5.312 26.338 5.21867 26.142 5.032C25.9553 4.836 25.862 4.60733 25.862 4.346C25.862 4.07533 25.9553 3.842 26.142 3.646C26.338 3.45 26.5713 3.352 26.842 3.352C27.1033 3.352 27.3273 3.45 27.514 3.646C27.7007 3.842 27.794 4.07533 27.794 4.346C27.794 4.60733 27.7007 4.836 27.514 5.032C27.3273 5.21867 27.1033 5.312 26.842 5.312ZM31.7793 15.07L31.9193 13.11C32.2553 13.11 32.5446 13.0773 32.7873 13.012C33.03 12.9467 33.2353 12.816 33.4033 12.62C33.5713 12.4147 33.7113 12.116 33.8233 11.724C33.9446 11.332 34.052 10.8093 34.1453 10.156L35.9793 10.464C35.9606 10.604 35.9326 10.7673 35.8953 10.954C35.8673 11.1407 35.8393 11.332 35.8113 11.528C35.7926 11.7147 35.7833 11.892 35.7833 12.06C35.7833 12.228 35.816 12.3773 35.8813 12.508C35.9466 12.6387 36.0493 12.7507 36.1893 12.844C36.3386 12.928 36.53 12.9933 36.7633 13.04C37.006 13.0867 37.3 13.11 37.6453 13.11C38 13.11 38.252 13.2033 38.4013 13.39C38.5506 13.5673 38.6253 13.7913 38.6253 14.062C38.6253 14.3513 38.5273 14.594 38.3313 14.79C38.1446 14.9767 37.8693 15.07 37.5053 15.07C37.0853 15.07 36.7026 15.0373 36.3573 14.972C36.0213 14.9067 35.7273 14.7993 35.4753 14.65C35.2326 14.4913 35.032 14.286 34.8733 14.034C34.724 13.7727 34.6306 13.4553 34.5933 13.082H35.2653C35.0973 13.53 34.8826 13.8893 34.6213 14.16C34.3693 14.4213 34.0846 14.6173 33.7673 14.748C33.45 14.8787 33.1186 14.9627 32.7733 15C32.4373 15.0467 32.106 15.07 31.7793 15.07ZM35.6853 18.318C35.4146 18.318 35.1813 18.22 34.9853 18.024C34.7986 17.8373 34.7053 17.6133 34.7053 17.352C34.7053 17.0813 34.7986 16.848 34.9853 16.652C35.1813 16.456 35.4146 16.358 35.6853 16.358C35.9466 16.358 36.1706 16.456 36.3573 16.652C36.544 16.848 36.6373 17.0813 36.6373 17.352C36.6373 17.6133 36.544 17.8373 36.3573 18.024C36.1706 18.22 35.9466 18.318 35.6853 18.318ZM33.2633 18.318C32.9926 18.318 32.7593 18.22 32.5633 18.024C32.3766 17.8373 32.2833 17.6133 32.2833 17.352C32.2833 17.0813 32.3766 16.848 32.5633 16.652C32.7593 16.456 32.9926 16.358 33.2633 16.358C33.5246 16.358 33.7486 16.456 33.9353 16.652C34.122 16.848 34.2153 17.0813 34.2153 17.352C34.2153 17.6133 34.122 17.8373 33.9353 18.024C33.7486 18.22 33.5246 18.318 33.2633 18.318ZM37.5078 15.07L37.6478 13.11C38.0585 13.11 38.3805 13.082 38.6138 13.026C38.8565 12.97 39.0291 12.8673 39.1318 12.718C39.2345 12.5593 39.2858 12.3353 39.2858 12.046C39.2858 11.7847 39.2485 11.472 39.1738 11.108C39.1085 10.744 39.0198 10.366 38.9078 9.974C38.7958 9.582 38.6838 9.22267 38.5718 8.896L40.5038 8.364C40.6158 8.68133 40.7278 9.05 40.8398 9.47C40.9518 9.89 41.0451 10.324 41.1198 10.772C41.2038 11.2107 41.2458 11.6353 41.2458 12.046C41.2458 12.5593 41.1805 12.9933 41.0498 13.348C40.9191 13.6933 40.7371 13.9827 40.5038 14.216C40.2798 14.44 40.0091 14.6173 39.6918 14.748C39.3838 14.8693 39.0431 14.9533 38.6698 15C38.2965 15.0467 37.9091 15.07 37.5078 15.07ZM39.2298 18.29C38.9591 18.29 38.7258 18.1967 38.5298 18.01C38.3431 17.8233 38.2498 17.5947 38.2498 17.324C38.2498 17.0533 38.3431 16.8153 38.5298 16.61C38.7258 16.414 38.9591 16.316 39.2298 16.316C39.5005 16.316 39.7291 16.414 39.9158 16.61C40.1118 16.8153 40.2098 17.0533 40.2098 17.324C40.2098 17.5947 40.1118 17.8233 39.9158 18.01C39.7291 18.1967 39.5005 18.29 39.2298 18.29ZM42.1752 18.234L41.4612 16.498C41.9558 16.33 42.4085 16.134 42.8192 15.91C43.2392 15.686 43.6032 15.4387 43.9112 15.168C44.2192 14.8973 44.4572 14.6033 44.6252 14.286C44.7932 13.9593 44.8772 13.6093 44.8772 13.236C44.8772 12.844 44.7885 12.4147 44.6112 11.948C44.4338 11.4813 44.2192 11.0053 43.9672 10.52L45.8012 9.638C45.9692 9.92733 46.1138 10.24 46.2352 10.576C46.3658 10.9027 46.4732 11.1967 46.5572 11.458C46.6412 11.7193 46.6972 11.8967 46.7252 11.99C46.8558 12.438 47.0332 12.7367 47.2572 12.886C47.4905 13.0353 47.8638 13.11 48.3772 13.11C48.7318 13.11 48.9838 13.2033 49.1332 13.39C49.2918 13.5673 49.3712 13.7913 49.3712 14.062C49.3712 14.3513 49.2732 14.594 49.0772 14.79C48.8812 14.9767 48.6012 15.07 48.2372 15.07C47.8545 15.07 47.5185 15.014 47.2292 14.902C46.9398 14.79 46.7065 14.6267 46.5292 14.412C46.3612 14.1973 46.2538 13.9453 46.2072 13.656L46.7252 13.95C46.6692 14.4447 46.5058 14.9113 46.2352 15.35C45.9738 15.798 45.6332 16.2087 45.2132 16.582C44.7932 16.9553 44.3218 17.282 43.7992 17.562C43.2765 17.842 42.7352 18.066 42.1752 18.234ZM48.1979 15.07L48.3379 13.11C48.9912 13.11 49.5792 13.068 50.1019 12.984C50.6246 12.8907 51.0819 12.7693 51.4739 12.62C51.8752 12.4707 52.2066 12.298 52.4679 12.102C52.7386 11.906 52.9392 11.7007 53.0699 11.486C53.2099 11.262 53.2799 11.0427 53.2799 10.828C53.2799 10.7067 53.2472 10.5947 53.1819 10.492C53.1259 10.38 53.0279 10.2913 52.8879 10.226C52.7479 10.1513 52.5566 10.114 52.3139 10.114C52.1926 10.114 52.0479 10.128 51.8799 10.156C51.7119 10.184 51.5439 10.226 51.3759 10.282C51.2079 10.3287 51.0492 10.394 50.8999 10.478C51.0959 10.6273 51.3106 10.8187 51.5439 11.052C51.7772 11.276 52.0106 11.514 52.2439 11.766C52.4772 12.0087 52.6779 12.2467 52.8459 12.48C53.0419 12.564 53.2566 12.648 53.4899 12.732C53.7326 12.8067 53.9939 12.872 54.2739 12.928C54.5539 12.984 54.8479 13.0307 55.1559 13.068C55.4639 13.096 55.7812 13.11 56.1079 13.11C56.4626 13.11 56.7146 13.2033 56.8639 13.39C57.0226 13.5673 57.1019 13.7913 57.1019 14.062C57.1019 14.3513 57.0039 14.594 56.8079 14.79C56.6119 14.9767 56.3319 15.07 55.9679 15.07C55.2212 15.07 54.5586 15.014 53.9799 14.902C53.4012 14.7807 52.8832 14.608 52.4259 14.384C51.9779 14.1507 51.5579 13.8707 51.1659 13.544C51.0539 13.348 50.8952 13.138 50.6899 12.914C50.4939 12.6807 50.2839 12.4567 50.0599 12.242C49.8452 12.0273 49.6492 11.85 49.4719 11.71C49.4252 11.6727 49.3692 11.5747 49.3039 11.416C49.2479 11.248 49.1966 11.0753 49.1499 10.898C49.1032 10.7113 49.0799 10.5807 49.0799 10.506C49.0799 10.2913 49.1779 10.0627 49.3739 9.82C49.5792 9.57733 49.8499 9.35333 50.1859 9.148C50.5312 8.93333 50.9092 8.76067 51.3199 8.63C51.7399 8.49 52.1646 8.42 52.5939 8.42C53.1726 8.42 53.6532 8.50867 54.0359 8.686C54.4279 8.854 54.7219 9.092 54.9179 9.4C55.1139 9.69867 55.2119 10.0487 55.2119 10.45C55.2119 10.898 55.1139 11.346 54.9179 11.794C54.7219 12.2327 54.4326 12.648 54.0499 13.04C53.6766 13.432 53.2052 13.782 52.6359 14.09C52.0759 14.3887 51.4226 14.6267 50.6759 14.804C49.9386 14.9813 49.1126 15.07 48.1979 15.07ZM55.9785 15.07L56.1185 13.11C56.5478 13.11 56.8558 13.068 57.0425 12.984C57.2292 12.8907 57.3412 12.7227 57.3785 12.48C57.4158 12.228 57.4252 11.864 57.4065 11.388L57.1545 4.752H59.1285L59.4085 11.528C59.4272 12.0693 59.4038 12.5593 59.3385 12.998C59.2825 13.4273 59.1378 13.796 58.9045 14.104C58.6805 14.412 58.3305 14.65 57.8545 14.818C57.3878 14.986 56.7625 15.07 55.9785 15.07ZM61.2548 15L60.9608 4.752H62.9208L63.2148 15H61.2548Z" fill="#003764"/>
<path d="M0 4H17V8H0V4Z" fill="#00732F"/>
<path d="M0 8H17V12H0V8Z" fill="white"/>
<path d="M0 12H17V16H0V12Z" fill="black"/>
<path d="M0 4H5.84375V16H0V4Z" fill="#FF0000"/>
<path d="M76 0V20.5" stroke="#003764" stroke-opacity="0.2"/>
<g clip-path="url(#clip0_1_18493)">
<path d="M88.8813 16.0062H104.069C104.557 15.9781 104.95 15.5623 104.95 15.0589V4.94737C104.95 4.42835 104.535 4.00313 104.026 4H88.9243C88.4145 4.00313 88 4.42835 88 4.94737V15.0558C88 15.5623 88.393 15.9781 88.8813 16.0062Z" fill="#FEFEFE"/>
<path d="M95.2897 11.2006V16.0062H97.648V11.2006H104.95V8.79937H97.648V4H95.2897V8.79937H88V11.2006H95.2897Z" fill="#C8102E"/>
<path d="M98.4336 7.8864V4H104.031C104.418 4.00625 104.75 4.25326 104.885 4.60031L98.4336 7.8864Z" fill="#012169"/>
<path d="M98.4336 12.1201V16.0065H104.068C104.44 15.9846 104.753 15.7408 104.885 15.4062L98.4336 12.1201Z" fill="#012169"/>
<path d="M94.5036 12.1201V16.0065H88.8812C88.5097 15.9846 88.1934 15.7408 88.0645 15.3999L94.5036 12.1201Z" fill="#012169"/>
<path d="M94.5036 7.8864V4H88.9181C88.5312 4.00625 88.1965 4.25638 88.0645 4.60657L94.5036 7.8864Z" fill="#012169"/>
<path d="M88 8.00219H90.349L88 6.80469V8.00219Z" fill="#012169"/>
<path d="M104.95 8.0016H102.589L104.95 6.79785V8.0016Z" fill="#012169"/>
<path d="M104.95 12.0039H102.589L104.95 13.2077V12.0039Z" fill="#012169"/>
<path d="M88 12.0039H90.349L88 13.2014V12.0039Z" fill="#012169"/>
<path d="M104.95 5.0166L99.1006 8.00253H100.409L104.95 5.68883V5.0166Z" fill="#C8102E"/>
<path d="M93.8373 12.0039H92.5292L88 14.3114V14.9836L93.8496 12.0039H93.8373Z" fill="#C8102E"/>
<path d="M91.2303 8.00511H92.5384L88 5.69141V6.3605L91.2303 8.00511Z" fill="#C8102E"/>
<path d="M101.705 12.001H100.396L104.95 14.3241V13.655L101.705 12.001Z" fill="#C8102E"/>
</g>
<path d="M112.741 15V6.628H118.747V7.993H114.496V10.138H118.266V11.49H114.496V13.648H118.747V15H112.741ZM119.965 15V6.628H121.486L125.451 12.205V6.628H127.206V15H125.685L121.72 9.423V15H119.965ZM132.716 15.13C131.312 15.13 130.246 14.7617 129.518 14.025C128.79 13.2883 128.426 12.2657 128.426 10.957C128.426 9.57033 128.795 8.48267 129.531 7.694C130.268 6.89667 131.364 6.498 132.82 6.498C133.323 6.498 133.778 6.52833 134.185 6.589C134.593 6.641 134.978 6.72767 135.342 6.849V8.357C134.978 8.227 134.593 8.136 134.185 8.084C133.787 8.02333 133.375 7.993 132.95 7.993C131.954 7.993 131.247 8.24 130.831 8.734C130.415 9.21933 130.207 9.96033 130.207 10.957C130.207 12.751 131.052 13.648 132.742 13.648C133.037 13.648 133.323 13.6263 133.6 13.583C133.886 13.531 134.138 13.466 134.354 13.388V11.438H132.404V10.32H135.836V14.415C135.55 14.597 135.152 14.7617 134.64 14.909C134.129 15.0563 133.488 15.13 132.716 15.13ZM137.053 15V6.628H138.808V13.648H142.929V15H137.053ZM143.895 15V6.628H145.65V15H143.895ZM149.733 15.13C149.195 15.13 148.693 15.091 148.225 15.013C147.765 14.935 147.367 14.8223 147.029 14.675V13.128C147.41 13.284 147.822 13.4097 148.264 13.505C148.706 13.6003 149.139 13.648 149.564 13.648C150.17 13.648 150.617 13.5917 150.903 13.479C151.189 13.3663 151.332 13.1107 151.332 12.712C151.332 12.4607 151.271 12.2613 151.15 12.114C151.028 11.9667 150.816 11.8367 150.513 11.724C150.218 11.6027 149.798 11.4683 149.252 11.321C148.376 11.0783 147.761 10.775 147.406 10.411C147.05 10.047 146.873 9.54433 146.873 8.903C146.873 8.13167 147.154 7.538 147.718 7.122C148.281 6.706 149.1 6.498 150.175 6.498C150.677 6.498 151.145 6.53267 151.579 6.602C152.012 6.67133 152.363 6.75367 152.632 6.849V8.396C151.921 8.12733 151.18 7.993 150.409 7.993C149.863 7.993 149.434 8.05367 149.122 8.175C148.81 8.28767 148.654 8.53033 148.654 8.903C148.654 9.11967 148.71 9.293 148.823 9.423C148.935 9.553 149.126 9.67 149.395 9.774C149.672 9.878 150.058 9.995 150.552 10.125C151.236 10.307 151.765 10.5237 152.138 10.775C152.51 11.0263 152.766 11.3123 152.905 11.633C153.052 11.9537 153.126 12.3133 153.126 12.712C153.126 13.44 152.848 14.025 152.294 14.467C151.739 14.909 150.885 15.13 149.733 15.13ZM154.344 15V6.628H156.099V10.138H159.752V6.628H161.507V15H159.752V11.49H156.099V15H154.344Z" fill="#003764"/>
<defs>
<clipPath id="clip0_1_18493">
<rect width="16.95" height="12.0062" fill="white" transform="translate(88 4)"/>
</clipPath>
</defs>
</svg>
