<svg width="281" height="76" viewBox="0 0 281 76" fill="none" xmlns="http://www.w3.org/2000/svg">
<g clip-path="url(#clip0_1_2819)">
<path d="M231.157 45.6236V55.4134H223.417C223.417 52.0653 223.417 48.7894 223.417 45.5324C223.417 44.2669 223.455 42.9938 223.33 41.7321C223 38.3953 221.342 36.8676 218.208 36.8904C215.074 36.9132 212.972 38.6651 212.79 41.7777C212.578 45.4374 212.665 49.1124 212.627 52.7988C212.627 53.3688 212.798 54.0263 212.57 54.4861C212.289 55.0448 211.705 55.7973 211.2 55.8391C209.262 55.9949 207.304 55.8999 205.176 55.8999V19.8837H212.582V31.8359L212.98 32.1475C215.226 29.377 218.333 30.2473 221.141 29.8901C226.749 31.1518 230.546 35.564 230.941 41.2912C231.059 42.7354 231.089 44.1795 231.157 45.6236Z" fill="#FEFEFE"/>
<path d="M273.253 30.1409H281C280.689 35.8415 280.932 41.542 279.926 46.9766C278.811 53.0344 272.82 56.3673 266.093 55.7175C259.844 55.1094 255.299 50.7542 254.889 44.628C254.597 40.2195 254.65 35.7883 254.65 31.3646C254.65 30.9086 255.295 30.0801 255.682 30.0573C257.807 29.9281 259.943 29.9965 262.329 29.9965C262.329 32.0829 262.329 33.9679 262.329 35.8491C262.352 38.5663 262.295 41.2912 262.466 44.0009C262.644 46.8132 264.522 48.5385 267.235 48.6792C270.327 48.8388 272.353 47.4668 272.793 44.5177C273.112 42.3477 273.014 40.1093 273.055 37.9013C273.097 35.5602 273.055 33.2192 273.089 30.882C273.126 30.6313 273.18 30.3836 273.253 30.1409Z" fill="#FEFEFE"/>
<path d="M239.732 55.6452L235.612 55.4628V49.405C235.714 46.6915 235.733 43.9743 235.93 41.2722C236.134 38.1519 237.541 35.2333 239.854 33.1338C242.167 31.0343 245.206 29.9187 248.325 30.0231C249.464 30.0231 250.564 30.0231 251.808 30.0231V37.2438C250.875 37.2438 249.957 37.202 249.046 37.2438C245.359 37.4452 243.522 39.3264 243.477 43.0052C243.431 46.4255 243.477 49.8458 243.477 53.2396V55.421L239.732 55.6452Z" fill="#FEFEFE"/>
<path d="M124.21 55.4399C124.165 55.0827 124.123 54.7255 124.081 54.372C124.081 49.8116 124.248 45.2511 124.081 40.7249C123.979 38.0228 122.165 36.7345 119.445 36.8789C116.929 37.0119 115.522 38.7183 115.366 41.8194C115.347 45.8098 115.245 49.8002 115.34 53.7868C115.381 55.5045 114.767 56.0176 113.143 55.9074C111.447 55.7934 109.728 55.8808 107.79 55.8808C107.74 55.1435 107.657 54.4784 107.657 53.8172C107.657 49.766 107.691 45.711 107.623 41.656C107.566 38.3952 105.65 36.6243 102.603 36.8865C100.706 37.0537 99.4198 38.0684 98.9835 39.9496C98.7806 40.8743 98.6813 41.8189 98.6875 42.7657C98.6534 46.5052 98.6344 50.241 98.6875 53.9768C98.7103 55.3373 98.2854 55.9606 96.8436 55.896C95.0187 55.8124 93.1823 55.877 91.1146 55.877C91.0804 55.1359 91.0197 54.4708 91.0197 53.8058C91.0197 49.69 91.069 45.5704 91.0197 41.4545C90.9173 35.1307 95.5726 29.776 102.375 29.928C106.04 30.0078 108.894 30.9541 111.102 33.8538L111.891 33.831L112.479 33.1355C115.795 29.1527 120.185 29.3769 124.449 30.5817C128.714 31.7864 131.279 35.0395 131.624 39.4327C132.022 44.4568 131.878 49.5228 131.916 54.5735C131.916 54.9839 131.499 55.7592 131.286 55.7554C128.903 55.7212 126.555 55.5654 124.21 55.4399Z" fill="#FDFDFE"/>
<path d="M148.504 30.023C156.6 30.023 161.707 34.7773 162.022 41.941C162.424 50.9631 155.796 56.0366 148.265 55.839C140.104 55.6224 135.076 50.1384 135.118 42.6745C135.152 36.0656 139.387 29.3884 148.504 30.023ZM154.369 42.7277C154.369 38.8589 152.377 36.8485 148.572 36.8675C144.983 36.8675 142.881 39.0299 142.835 42.7163C142.79 46.4027 145.002 48.6069 148.686 48.6867C151.683 48.7589 154.844 46.7903 154.369 42.7391V42.7277Z" fill="#FCFDFE"/>
<path d="M184.729 24.0488H192.359V30.8097H199.488C199.488 33.0443 199.549 35.1041 199.424 37.1487C199.405 37.468 198.528 37.9506 198.028 37.9772C196.214 38.0798 194.389 38.019 192.382 38.019C192.382 40.9225 191.805 43.6778 193.365 46.2506C195.14 49.1845 198.092 48.5803 201.025 48.7057C201.025 50.8111 201.07 52.8177 200.983 54.8129C200.921 55.0338 200.805 55.2357 200.645 55.4002C200.486 55.5648 200.287 55.6869 200.069 55.7554C195.99 56.4699 189.931 54.5393 187.374 50.8795C185.617 48.3599 184.684 45.749 184.718 42.6897C184.771 36.5521 184.729 30.4031 184.729 24.0488Z" fill="#FEFEFE"/>
<path d="M165.93 55.5616C165.93 50.967 165.93 46.6231 165.93 42.2793C165.882 39.716 166.633 37.2016 168.077 35.0852C170.236 31.9043 173.389 30.4867 177.043 30.0231C178.587 29.8255 180.18 29.9889 181.903 29.9889V37.0272C180.302 37.221 178.742 37.3046 177.228 37.6124C175.073 38.0533 173.764 39.4784 173.685 41.6408C173.537 45.6198 173.472 49.6216 173.533 53.5892C173.556 55.2006 173.009 55.6871 171.465 55.5882C169.678 55.4856 167.861 55.5616 165.93 55.5616Z" fill="#FEFEFE"/>
<path d="M24.9878 16.1593C33.8406 16.1593 42.6833 16.1682 51.5159 16.1859C56.4861 16.1859 59.5479 18.8728 59.6352 23.8475C59.8021 33.3484 59.7907 42.8266 59.6769 52.3161C59.6238 56.7778 56.7934 59.4874 52.2899 59.7763C49.7744 59.9359 47.2476 59.9283 44.7245 59.9967C37.9749 59.9511 31.2252 59.8903 24.4718 59.8599C18.8983 59.8371 16.1248 57.116 16.0983 51.499C16.0603 42.7582 16.0641 34.0515 16.0565 25.3296C16.0489 18.8234 18.5606 16.2505 24.9878 16.1593ZM55.5148 38.2015C55.5148 33.5194 55.5528 28.8336 55.5148 24.1401C55.4845 21.5178 54.4184 20.2675 51.9067 20.2485C42.548 20.17 33.1893 20.17 23.8306 20.2485C21.4593 20.2485 20.2793 21.5102 20.2717 23.7677C20.2262 33.1419 20.2186 42.5099 20.249 51.8715C20.249 54.5317 21.4327 55.6719 24.1303 55.6719C33.2361 55.6997 42.3418 55.6883 51.4476 55.6376C54.5891 55.6148 55.4921 54.6115 55.5072 51.4838C55.53 47.0716 55.5148 42.6403 55.5148 38.2091V38.2015Z" fill="#FDFEFE"/>
<path d="M19.2739 70.3869C19.2739 69.2467 19.0311 68.042 19.3536 67.0121C19.6002 66.2292 20.5449 65.1879 21.2203 65.1575C21.8956 65.1271 23.1742 66.1418 23.2425 66.7955C23.4544 69.2386 23.4823 71.6943 23.326 74.1416C23.2653 75.3349 22.3357 76.2698 21.152 75.9278C20.3932 75.7112 19.5661 74.7459 19.346 73.9554C19.0387 72.8457 19.2663 71.584 19.2663 70.3869H19.2739Z" fill="#FAFBFD"/>
<path d="M20.3476 0.163451C22.3015 -0.0683726 23.3184 0.482682 23.3563 2.20425C23.4132 4.86452 23.1818 7.52479 23.0717 10.2117C22.2484 10.4891 21.0723 11.2378 20.6777 10.9451C19.9133 10.277 19.425 9.34747 19.308 8.33807C19.1252 6.44229 19.1252 4.53328 19.308 2.6375C19.3687 1.79761 19.9796 0.991933 20.3476 0.163451Z" fill="#FAFBFD"/>
<path d="M5.41038 34.2339C4.27216 34.2339 3.13394 34.2833 2.01469 34.2339C0.758855 34.1541 -0.159309 33.3522 0.060747 32.1855C0.208716 31.4254 1.1762 30.2853 1.87052 30.2245C4.2505 30.0199 6.64252 29.9957 9.02613 30.1523C9.29783 30.1463 9.56757 30.1996 9.81667 30.3084C10.0658 30.4172 10.2883 30.579 10.4687 30.7826C10.6492 30.9861 10.7833 31.2265 10.8618 31.4871C10.9402 31.7478 10.9612 32.0224 10.9232 32.2919C10.8435 33.5612 10.0278 34.1921 8.7909 34.2339C7.65268 34.2719 6.51446 34.2339 5.37624 34.2339H5.41038Z" fill="#FAFBFD"/>
<path d="M5.47103 41.8042C6.60925 41.8042 7.74747 41.7662 8.88569 41.8042C10.1263 41.8574 10.9155 42.5301 10.961 43.7994C11.0066 45.0687 10.1757 45.8402 8.98813 45.8896C6.66616 45.9922 4.33281 45.9884 2.01084 45.8896C0.80812 45.8402 -0.0189872 45.0649 0.0189535 43.7994C0.0568941 42.5339 0.842266 41.8498 2.09431 41.7966C3.20597 41.7586 4.3404 41.8042 5.47103 41.8042Z" fill="#FAFBFD"/>
<path d="M45.4112 65.663C45.4795 65.8188 45.544 65.9784 45.6085 66.1342C45.6768 68.7945 45.8323 71.4358 45.7754 74.0808C45.7527 75.2741 44.8421 76.247 43.6432 75.9316C42.8843 75.7302 41.8637 74.7345 41.7841 74.0048C41.584 71.7298 41.5612 69.4427 41.7158 67.1641C41.8182 65.1309 43.2524 64.6065 45.4112 65.663Z" fill="#FBFCFD"/>
<path d="M34.1087 70.6225C34.1087 71.6942 34.1087 72.7698 34.1087 73.8415C34.1087 75.1146 33.3992 76.1217 32.2116 75.9165C31.3807 75.7797 30.1287 74.8068 30.049 74.0923C29.7721 71.7124 29.7721 69.3084 30.049 66.9286C30.1325 66.2179 31.4035 65.2488 32.2382 65.1234C33.4144 64.9448 34.1087 65.9367 34.1011 67.2174C34.1011 68.3537 34.1087 69.49 34.1087 70.6225Z" fill="#FCFDFE"/>
<path d="M5.33447 23.5625C4.26541 23.6233 3.19376 23.6233 2.12469 23.5625C0.868855 23.418 -0.0227505 22.6504 0.0189842 21.3316C0.0607189 20.0129 0.948531 19.3782 2.29542 19.401C4.43528 19.439 6.59031 19.268 8.71119 19.4846C9.15902 19.5706 9.5814 19.7577 9.94627 20.0316C10.3111 20.3055 10.6089 20.6592 10.8169 21.0656C11.2418 22.2057 10.5399 23.1254 9.21201 23.2926C7.88409 23.4598 6.63963 23.5625 5.34585 23.7107L5.33447 23.5625Z" fill="#FCFDFE"/>
<path d="M5.57346 52.8253C6.71168 52.8253 7.8499 52.6809 8.96536 52.8747C9.6445 52.9963 10.6537 53.536 10.7562 54.0452C10.8965 54.7369 10.4375 55.6566 9.99734 56.3255C9.80506 56.5352 9.57005 56.701 9.30822 56.8118C9.04639 56.9226 8.76385 56.9758 8.47972 56.9677C6.11981 56.9107 3.73334 56.8879 1.41516 56.5041C0.84226 56.4091 0.132769 55.0067 0.15174 54.2238C0.15174 53.745 1.39619 53.0571 2.17018 52.8937C3.27426 52.6657 4.44283 52.8253 5.57346 52.8253Z" fill="#FCFDFE"/>
<path d="M45.8362 5.617C45.8362 6.6279 45.8931 7.64261 45.8362 8.65731C45.7451 9.98364 45.1001 10.9641 43.7039 11.1314C42.3077 11.2986 41.7652 10.3257 41.7272 9.23116C41.64 6.70391 41.6855 4.16906 41.7689 1.6304C41.8031 0.49029 42.5885 -0.250784 43.666 0.110252C44.4779 0.383879 45.4833 1.14015 45.7034 1.88503C46.0487 3.04415 45.7945 4.37808 45.7945 5.6398L45.8362 5.617Z" fill="#FBFCFD"/>
<path d="M70.2244 30.0838C71.2981 30.0838 72.4477 29.8444 73.4228 30.156C74.3068 30.4373 75.3805 31.1935 75.6423 31.984C75.813 32.4933 74.7317 34.0362 74.1247 34.0894C71.4739 34.3215 68.8079 34.3215 66.1571 34.0894C65.5918 34.04 64.6395 32.6605 64.7457 32.0676C64.8899 31.3076 65.8612 30.4297 66.6428 30.2054C67.7506 29.8862 69.0179 30.1256 70.2206 30.1256L70.2244 30.0838Z" fill="#FAFBFD"/>
<path d="M29.9276 5.46881C29.9276 4.4009 29.9276 3.3292 29.9276 2.25749C29.9276 0.927356 30.5688 0.0836713 31.9119 0.0494678C33.255 0.0152644 34.0517 0.760139 34.0783 2.11687C34.1276 4.3971 34.12 6.65073 34.0783 8.91575C34.0967 9.21416 34.0514 9.51308 33.9455 9.7926C33.8397 10.0721 33.6755 10.3259 33.4641 10.5369C33.2527 10.748 32.9988 10.9115 32.7194 11.0166C32.44 11.1217 32.1414 11.166 31.8436 11.1466C30.5688 11.1466 29.9124 10.1889 29.92 8.86635C29.9314 7.73764 29.9276 6.60512 29.9276 5.46881Z" fill="#FCFDFE"/>
<path d="M52.3126 5.50303C52.3126 4.36292 52.0584 3.1506 52.3923 2.1245C52.6578 1.30361 53.5305 0.304114 54.3234 0.117896C55.5451 -0.167133 56.4519 0.699354 56.4709 2.08649C56.505 4.41613 56.6492 6.76856 56.3874 9.07159C56.2964 9.85827 55.2188 10.9908 54.4411 11.1314C53.3028 11.3366 52.3885 10.4169 52.324 9.09439C52.2709 7.89727 52.3126 6.70015 52.3126 5.50303Z" fill="#FCFDFE"/>
<path d="M70.103 19.3819C71.2412 19.3819 72.3794 19.3819 73.5176 19.3819C74.7735 19.3629 75.6689 19.9634 75.7599 21.1833C75.7943 21.4691 75.769 21.7589 75.6856 22.0344C75.6023 22.3098 75.4628 22.565 75.2759 22.7836C75.089 23.0023 74.8588 23.1797 74.5999 23.3046C74.341 23.4294 74.059 23.4991 73.7718 23.5092C71.3859 23.7006 68.9877 23.6827 66.6049 23.4559C65.8802 23.3723 64.8027 22.1372 64.7533 21.3733C64.6813 20.3434 65.3604 19.2185 66.9046 19.3667C67.9555 19.477 69.052 19.3819 70.103 19.3819Z" fill="#FCFDFE"/>
<path d="M70.2662 41.8042C71.4044 41.8042 72.5919 41.5762 73.6391 41.8764C74.4548 42.1121 75.6879 43.0432 75.65 43.5866C75.5892 44.3847 74.6218 45.6882 73.935 45.7604C71.4397 46.0114 68.9257 46.0114 66.4304 45.7604C65.7664 45.6996 64.7534 44.5063 64.723 43.8032C64.6889 42.8797 65.2428 41.7206 66.6884 41.7852C67.8797 41.865 69.0748 41.8232 70.2662 41.8042Z" fill="#FAFBFD"/>
<path d="M56.4823 70.5655C56.4823 71.6372 56.4482 72.7089 56.4823 73.7806C56.5354 75.0804 55.8791 76.0608 54.6915 75.905C53.8455 75.791 52.5403 74.8447 52.4568 74.1455C52.1582 71.7699 52.1519 69.3665 52.4379 66.9893C52.5327 66.2521 53.9062 65.2526 54.794 65.1424C55.9739 64.9941 56.5582 66.0697 56.4861 67.3504C56.4368 68.4069 56.4823 69.4938 56.4823 70.5655Z" fill="#FCFDFE"/>
<path d="M70.2813 52.8253C71.4803 52.8253 72.7133 52.6504 73.8629 52.8899C74.561 53.0343 75.464 53.7221 75.6461 54.3492C75.8055 54.8851 75.2212 55.8694 74.6787 56.3064C74.1361 56.7435 73.1838 56.9259 72.4022 56.9753C70.8865 57.0824 69.3651 57.0824 67.8493 56.9753C67.0905 56.9145 66.1041 56.7016 65.6374 56.181C65.1229 55.5162 64.8911 54.6749 64.9924 53.84C65.0531 53.4295 66.0547 52.9545 66.6808 52.8709C67.8788 52.7791 69.0814 52.7639 70.2813 52.8253Z" fill="#FCFDFE"/>
</g>
<defs>
<clipPath id="clip0_1_2819">
<rect width="281" height="76" fill="white"/>
</clipPath>
</defs>
</svg>
